PathFileType	4	(X/Y/Z)	/Users/itak/Documents/Research/Walk-IL/dataset/trc/00141_00007.trc
DataRate	CameraRate	NumFrames	NumMarkers	Units	OrigDataRate	OrigDataStartFrame	OrigNumFrames
100.000000	100.000000	4	53	mm	100.000000	0	599
Frame#	Time	RPSI			LPSI			L3			STRN			T10			C7			CLAV			RBAK			LBAK			LSHO			LUPA			LAEL			LAOL			LWTS			LWPS			LFRA			LIFD			LHPS			LHTS			RSHO			RUPA			RAEL			RAOL			RWTS			RWPS			RFRA			RIFD			RHTS			RHPS			RBHD			LFHD			RFHD			LBHD			LHIP			RHIP			RASI			LASI			LKNE			LTHI			LANK			LTIP			LTOE			LMT1			LMT5			LHEE			RKNE			RTHI			RANK			RTIP			RTOE			RMT1			RMT5			RHEE			
		X1	Y1	Z1	X2	Y2	Z2	X3	Y3	Z3	X4	Y4	Z4	X5	Y5	Z5	X6	Y6	Z6	X7	Y7	Z7	X8	Y8	Z8	X9	Y9	Z9	X10	Y10	Z10	X11	Y11	Z11	X12	Y12	Z12	X13	Y13	Z13	X14	Y14	Z14	X15	Y15	Z15	X16	Y16	Z16	X17	Y17	Z17	X18	Y18	Z18	X19	Y19	Z19	X20	Y20	Z20	X21	Y21	Z21	X22	Y22	Z22	X23	Y23	Z23	X24	Y24	Z24	X25	Y25	Z25	X26	Y26	Z26	X27	Y27	Z27	X28	Y28	Z28	X29	Y29	Z29	X30	Y30	Z30	X31	Y31	Z31	X32	Y32	Z32	X33	Y33	Z33	X34	Y34	Z34	X35	Y35	Z35	X36	Y36	Z36	X37	Y37	Z37	X38	Y38	Z38	X39	Y39	Z39	X40	Y40	Z40	X41	Y41	Z41	X42	Y42	Z42	X43	Y43	Z43	X44	Y44	Z44	X45	Y45	Z45	X46	Y46	Z46	X47	Y47	Z47	X48	Y48	Z48	X49	Y49	Z49	X50	Y50	Z50	X51	Y51	Z51	X52	Y52	Z52	X53	Y53	Z53	

1	0	-768.8137817382812	1131.720581054688	1226.916748046875	-775.0032958984375	1132.0712890625	1092.400390625	-779.1160888671875	1162.082641601562	1157.330200195312	-566.3739013671875	1365.429443359375	1144.408935546875	-822.5342407226562	1312.892333984375	1157.323974609375	-793.7843017578125	1605.020629882812	1139.772583007812	-606.8040161132812	1499.2939453125	1140.715576171875	-841.5994262695312	1420.926147460938	1231.796264648438	-803.999267578125	1583.957885742188	1038.02978515625	-719.6717529296875	1569.658813476562	965.9863891601562	-741.311279296875	1436.610595703125	897.4472045898438	-722.0816040039062	1216.515747070312	879.3202514648438	-783.740966796875	1204.270874023438	942.450439453125	-608.3784790039062	962.5827026367188	917.12353515625	-691.3237915039062	933.9124145507812	898.0452880859375	-702.5087890625	1100.619140625	875.9154663085938	-584.1991577148438	769.3618774414062	934.4912719726562	-660.432861328125	859.6215209960938	896.7269897460938	-592.1932983398438	874.5144653320312	907.2387084960938	-728.3565673828125	1588.608154296875	1318.421752929688	-741.5366821289062	1516.592529296875	1384.672485351562	-744.2352294921875	1222.196044921875	1409.103393554688	-754.9764404296875	1219.118530273438	1313.692749023438	-590.13525390625	983.9844970703125	1392.78125	-662.9708251953125	965.33349609375	1429.295288085938	-716.6729736328125	1149.290771484375	1425.881958007812	-553.7734985351562	790.9449462890625	1383.052001953125	-554.074462890625	879.6985473632812	1398.482055664062	-620.6006469726562	867.4229736328125	1431.82177734375	-747.05419921875	1773.725463867188	1224.443115234375	-607.8037719726562	1846.105102539062	1070.014526367188	-587.6040649414062	1848.021728515625	1198.69873046875	-774.8931884765625	1776.176025390625	1092.527587890625	-688.3438720703125	1040.442504882812	981.5709228515625	-633.5606689453125	1034.898193359375	1336.414794921875	-555.87646484375	1108.425903320312	1279.640625	-577.3954467773438	1106.266235351562	1013.960632324219	-670.7968139648438	539.7344970703125	1017.063903808594	-692.1941528320312	685.2424926757812	989.23193359375	-776.7465209960938	39.39525604248047	1044.695922851562	-771.5823974609375	293.0997009277344	1004.47705078125	-542.4757690429688	42.40436553955078	1085.854370117188	-620.9052734375	44.35031890869141	1125.989501953125	-653.33544921875	39.95511245727539	1012.478515625	-842.57763671875	40.43403625488281	1111.5927734375	-657.0383911132812	543.1851196289062	1304.987915039062	-619.0719604492188	821.7474975585938	1330.388427734375	-772.361083984375	33.77542877197266	1295.191650390625	-686.8161010742188	411.0527954101562	1317.324340820312	-542.7061157226562	48.22343826293945	1233.82080078125	-603.8098754882812	38.22271347045898	1193.926635742188	-637.5874633789062	43.36421203613281	1311.690551757812	-832.014892578125	34.771728515625	1248.612670898438	
2	0.01	-768.7537841796875	1131.721069335938	1226.857543945312	-774.9326171875	1132.091186523438	1092.351684570312	-779.0330200195312	1162.103637695312	1157.273315429688	-566.2350463867188	1365.419067382812	1144.374267578125	-822.4307250976562	1312.881469726562	1157.27197265625	-793.6884765625	1605.0439453125	1139.732543945312	-606.6481323242188	1499.283203125	1140.683349609375	-841.4981689453125	1420.921997070312	1231.712524414062	-803.89453125	1583.989990234375	1037.999145507812	-719.493896484375	1569.6748046875	965.9525756835938	-741.0787963867188	1436.615600585938	897.3849487304688	-721.8364868164062	1216.5537109375	879.2332763671875	-783.5346069335938	1204.255004882812	942.3270263671875	-608.0083618164062	962.6634521484375	917.0615844726562	-690.9066162109375	933.9405517578125	897.9535522460938	-702.1541748046875	1100.635375976562	875.8362426757812	-583.6666870117188	769.4657592773438	934.4254760742188	-659.9486694335938	859.6728515625	896.6575317382812	-591.7788696289062	874.618896484375	907.1616821289062	-728.2448120117188	1588.617797851562	1318.365966796875	-741.4241333007812	1516.5986328125	1384.611206054688	-744.1776123046875	1222.19189453125	1409.021484375	-754.9362182617188	1219.122192382812	1313.61767578125	-590.1043090820312	983.9869384765625	1392.661743164062	-662.8970947265625	965.3319091796875	1429.169189453125	-716.6233520507812	1149.2900390625	1425.806884765625	-553.7692260742188	790.9435424804688	1382.860229492188	-554.2369995117188	879.3340454101562	1398.621826171875	-620.4884643554688	867.4135131835938	1431.707275390625	-746.9220581054688	1773.673461914062	1224.440185546875	-607.7457275390625	1846.1396484375	1070.000366210938	-587.4944458007812	1848.018432617188	1198.6865234375	-774.7741088867188	1776.140869140625	1092.515380859375	-688.1810913085938	1040.4375	981.5250244140625	-633.4982299804688	1034.901733398438	1336.373657226562	-555.8092041015625	1108.419921875	1279.618286132812	-577.2546997070312	1106.244995117188	1013.925354003906	-670.7734985351562	539.7208251953125	1017.048828125	-692.1577758789062	685.2311401367188	989.2117309570312	-776.7338256835938	39.39248275756836	1044.68994140625	-771.5700073242188	293.0975341796875	1004.457824707031	-542.4702758789062	42.4052734375	1085.85400390625	-620.9093627929688	44.34938812255859	1125.989501953125	-653.3353271484375	39.94914627075195	1012.478881835938	-842.5811157226562	40.43810272216797	1111.590698242188	-657.022216796875	543.183837890625	1304.9716796875	-619.2650146484375	821.7733764648438	1330.443481445312	-772.355712890625	33.7843017578125	1295.189208984375	-686.8165893554688	411.0582275390625	1317.302001953125	-542.7033081054688	48.21571731567383	1233.817138671875	-603.8064575195312	38.22163391113281	1193.924926757812	-637.5825805664062	43.37123107910156	1311.6904296875	-832.019287109375	34.78263473510742	1248.596069335938	
3	0.02	-768.6775512695312	1131.721801757812	1226.783325195312	-774.8458251953125	1132.1171875	1092.289794921875	-778.9290161132812	1162.128051757812	1157.20263671875	-566.0612182617188	1365.408203125	1144.33349609375	-822.299072265625	1312.86669921875	1157.20361328125	-793.5691528320312	1605.07177734375	1139.681762695312	-606.4508666992188	1499.272094726562	1140.643310546875	-841.382568359375	1420.919555664062	1231.60986328125	-803.7603149414062	1584.028930664062	1037.9580078125	-719.2730102539062	1569.693969726562	965.9103393554688	-740.7832641601562	1436.625	897.3058471679688	-721.51806640625	1216.598510742188	879.126220703125	-783.2518920898438	1204.233154296875	942.1821899414062	-607.52978515625	962.7708740234375	916.9887084960938	-690.3936157226562	933.9779052734375	897.8422241210938	-701.714599609375	1100.658447265625	875.7376098632812	-583.0004272460938	769.5983276367188	934.3418579101562	-659.3511352539062	859.742919921875	896.5718383789062	-591.2581176757812	874.75537109375	907.0657958984375	-728.1121826171875	1588.628662109375	1318.297119140625	-741.2882690429688	1516.6044921875	1384.535278320312	-744.1013793945312	1222.185180664062	1408.919677734375	-754.8761596679688	1219.122802734375	1313.522583007812	-590.062744140625	983.9885864257812	1392.516723632812	-662.8046264648438	965.3269653320312	1429.011352539062	-716.5616455078125	1149.288208007812	1425.713134765625	-553.7666625976562	790.93798828125	1382.641235351562	-554.4158325195312	878.9763793945312	1398.727905273438	-620.3517456054688	867.3993530273438	1431.557250976562	-746.7551879882812	1773.608276367188	1224.433959960938	-607.670166015625	1846.18115234375	1069.986938476562	-587.3618774414062	1848.012451171875	1198.674072265625	-774.6265258789062	1776.100463867188	1092.498168945312	-687.9661865234375	1040.430541992188	981.4638061523438	-633.4221801757812	1034.9072265625	1336.3212890625	-555.7245483398438	1108.4130859375	1279.590576171875	-577.07763671875	1106.22021484375	1013.881896972656	-670.7402954101562	539.7033081054688	1017.031555175781	-692.1104125976562	685.2171020507812	989.186767578125	-776.7215576171875	39.39010620117188	1044.68505859375	-771.5512084960938	293.0966186523438	1004.433349609375	-542.4652709960938	42.40591812133789	1085.85400390625	-620.9130859375	44.34845733642578	1125.989501953125	-653.3353271484375	39.9427490234375	1012.479553222656	-842.5858154296875	40.44487380981445	1111.586791992188	-656.99853515625	543.1819458007812	1304.951293945312	-619.491455078125	821.8091430664062	1330.505004882812	-772.350830078125	33.79266738891602	1295.186889648438	-686.8139038085938	411.0638427734375	1317.27392578125	-542.6978149414062	48.20531463623047	1233.8115234375	-603.8018188476562	38.22072982788086	1193.92236328125	-637.5767211914062	43.37849807739258	1311.689819335938	-832.0215454101562	34.79509353637695	1248.578125	
4	0.03	-768.5882568359375	1131.72314453125	1226.696655273438	-774.7477416992188	1132.14892578125	1092.21728515625	-778.8082275390625	1162.153930664062	1157.12109375	-565.860107421875	1365.398071289062	1144.289794921875	-822.144287109375	1312.848876953125	1157.1201171875	-793.4317626953125	1605.101928710938	1139.62158203125	-606.220703125	1499.261840820312	1140.598022460938	-841.2627563476562	1420.920166015625	1231.494506835938	-803.6006469726562	1584.072387695312	1037.906005859375	-719.0195922851562	1569.71533203125	965.8613891601562	-740.436767578125	1436.640014648438	897.212890625	-721.1344604492188	1216.646484375	879.0048217773438	-782.89453125	1204.206665039062	942.0238037109375	-606.9566040039062	962.9028930664062	916.911376953125	-689.8048706054688	934.0249633789062	897.7171020507812	-701.211669921875	1100.689086914062	875.6239624023438	-582.23046875	769.7540893554688	934.244873046875	-658.6696166992188	859.8307495117188	896.47509765625	-590.6497192382812	874.9186401367188	906.9573364257812	-727.9674682617188	1588.640014648438	1318.218383789062	-741.1380004882812	1516.609375	1384.448608398438	-744.0089721679688	1222.176391601562	1408.802734375	-754.796630859375	1219.119750976562	1313.41162109375	-590.0114135742188	983.9889526367188	1392.355346679688	-662.6974487304688	965.3174438476562	1428.828979492188	-716.4900512695312	1149.285400390625	1425.6044921875	-553.7655029296875	790.9273681640625	1382.413818359375	-554.6026000976562	878.6638793945312	1398.782836914062	-620.2010498046875	867.3807373046875	1431.375244140625	-746.56201171875	1773.53369140625	1224.424682617188	-607.5784301757812	1846.226196289062	1069.9765625	-587.2140502929688	1848.003295898438	1198.663208007812	-774.4575805664062	1776.05810546875	1092.475219726562	-687.7052612304688	1040.422241210938	981.38818359375	-633.33544921875	1034.9150390625	1336.259521484375	-555.6259765625	1108.405883789062	1279.558471679688	-576.8721923828125	1106.193725585938	1013.832397460938	-670.6970825195312	539.6826171875	1017.013671875	-692.052978515625	685.201171875	989.158447265625	-776.7117919921875	39.38897323608398	1044.68310546875	-771.5248413085938	293.0978088378906	1004.405029296875	-542.4608764648438	42.40605163574219	1085.854736328125	-620.915771484375	44.34747695922852	1125.989379882812	-653.3355102539062	39.93667602539062	1012.480651855469	-842.5912475585938	40.45432662963867	1111.581176757812	-656.9668579101562	543.17919921875	1304.927490234375	-619.74609375	821.8548583984375	1330.57177734375	-772.34716796875	33.7996711730957	1295.184692382812	-686.8075561523438	411.069091796875	1317.242309570312	-542.689208984375	48.19278335571289	1233.803833007812	-603.796142578125	38.22002029418945	1193.9189453125	-637.5706787109375	43.38460922241211	1311.68896484375	-832.020751953125	34.8087043762207	1248.560424804688	
